# xmcd
#
# Track frame offsets:
#	150
#	16120
#	42110
#
# Disc length: 921 seconds
#
# Revision: 0
# Processed by: cddbd v1.5.2PL0 Copyright (c) Steve Scherf et al.
# Submitted via: audiograbber 1.83.01
#
DISCID=15039703
DTITLE=Another Level - Summertime CD Single
DYEAR=1999
DGENRE=Pop
TTITLE0=Summertime
TTITLE1=Summertime (DYNK Remix)
TTITLE2=Summertime (Inner Strength Remix)
EXTD=
EXTT0=
EXTT1=
EXTT2=
PLAYORDER=
